<svg width="244" height="156" viewBox="0 0 244 156" fill="none" xmlns="http://www.w3.org/2000/svg">
<path d="M125.289 105.684V137.383H119.84V105.684H125.289ZM119.43 97.2754C119.43 96.3965 119.693 95.6543 120.221 95.0488C120.768 94.4434 121.568 94.1406 122.623 94.1406C123.658 94.1406 124.449 94.4434 124.996 95.0488C125.562 95.6543 125.846 96.3965 125.846 97.2754C125.846 98.1152 125.562 98.8379 124.996 99.4434C124.449 100.029 123.658 100.322 122.623 100.322C121.568 100.322 120.768 100.029 120.221 99.4434C119.693 98.8379 119.43 98.1152 119.43 97.2754ZM149.781 120.01H137.623V116.934H149.781C152.32 116.934 154.381 116.523 155.963 115.703C157.564 114.863 158.727 113.73 159.449 112.305C160.191 110.879 160.562 109.277 160.562 107.5C160.562 105.762 160.191 104.16 159.449 102.695C158.727 101.23 157.564 100.059 155.963 99.1797C154.381 98.2812 152.32 97.832 149.781 97.832H138.883V137.383H135.279V94.7266H149.781C152.906 94.7266 155.533 95.2637 157.662 96.3379C159.811 97.4121 161.432 98.9062 162.525 100.82C163.619 102.734 164.166 104.941 164.166 107.441C164.166 110.059 163.619 112.314 162.525 114.209C161.432 116.084 159.82 117.52 157.691 118.516C155.562 119.512 152.926 120.01 149.781 120.01ZM183.268 137.969C181.197 137.969 179.293 137.588 177.555 136.826C175.836 136.064 174.332 134.99 173.043 133.604C171.773 132.217 170.787 130.576 170.084 128.682C169.4 126.768 169.059 124.678 169.059 122.412V121.152C169.059 118.711 169.42 116.504 170.143 114.531C170.865 112.559 171.861 110.869 173.131 109.463C174.4 108.057 175.846 106.982 177.467 106.24C179.107 105.479 180.826 105.098 182.623 105.098C184.635 105.098 186.422 105.459 187.984 106.182C189.547 106.885 190.855 107.891 191.91 109.199C192.984 110.488 193.795 112.021 194.342 113.799C194.889 115.557 195.162 117.5 195.162 119.629V121.768H171.168V118.779H191.676V118.369C191.637 116.592 191.275 114.932 190.592 113.389C189.928 111.826 188.932 110.557 187.604 109.58C186.275 108.604 184.615 108.115 182.623 108.115C181.139 108.115 179.771 108.428 178.521 109.053C177.291 109.678 176.227 110.576 175.328 111.748C174.449 112.9 173.766 114.277 173.277 115.879C172.809 117.461 172.574 119.219 172.574 121.152V122.412C172.574 124.17 172.828 125.811 173.336 127.334C173.863 128.838 174.605 130.166 175.562 131.318C176.539 132.471 177.691 133.369 179.02 134.014C180.348 134.658 181.812 134.98 183.414 134.98C185.289 134.98 186.949 134.639 188.395 133.955C189.84 133.252 191.139 132.148 192.291 130.645L194.488 132.344C193.805 133.359 192.945 134.297 191.91 135.156C190.895 136.016 189.674 136.699 188.248 137.207C186.822 137.715 185.162 137.969 183.268 137.969ZM214.059 105.684V108.555H198.18V105.684H214.059ZM204.01 97.5391H207.496V129.678C207.496 131.143 207.691 132.246 208.082 132.988C208.473 133.73 208.98 134.229 209.605 134.482C210.23 134.736 210.904 134.863 211.627 134.863C212.154 134.863 212.662 134.834 213.15 134.775C213.639 134.697 214.078 134.619 214.469 134.541L214.615 137.5C214.186 137.637 213.629 137.744 212.945 137.822C212.262 137.92 211.578 137.969 210.895 137.969C209.547 137.969 208.355 137.725 207.32 137.236C206.285 136.729 205.475 135.869 204.889 134.658C204.303 133.428 204.01 131.758 204.01 129.648V97.5391Z" fill="black"/>
<path d="M5.34082 75.1489L74.7694 9.08203L144.198 75.1489" stroke="black" stroke-width="1.71429" stroke-linecap="round" stroke-linejoin="round"/>
<path d="M57.7071 95.5043C58.7875 95.5043 59.6831 94.7853 60.2821 93.7988C60.8867 92.8033 61.2444 91.4599 61.2444 90.0026C61.2444 88.5453 60.8867 87.202 60.2821 86.2064C59.6831 85.2199 58.7875 84.501 57.7071 84.501C56.6268 84.501 55.7312 85.2199 55.1321 86.2064C54.5276 87.202 54.1699 88.5453 54.1699 90.0026C54.1699 91.4599 54.5276 92.8033 55.1321 93.7988C55.7312 94.7853 56.6268 95.5043 57.7071 95.5043Z" fill="#C48287" fill-opacity="0.75" stroke="#524E51" stroke-linecap="round" stroke-linejoin="round"/>
<path d="M66.8185 80.4994C67.8988 80.4994 68.7944 79.7805 69.3935 78.7939C69.998 77.7984 70.3557 76.455 70.3557 74.9977C70.3557 73.5405 69.998 72.1971 69.3935 71.2015C68.7944 70.215 67.8988 69.4961 66.8185 69.4961C65.7381 69.4961 64.8425 70.215 64.2435 71.2015C63.6389 72.1971 63.2812 73.5405 63.2812 74.9977C63.2812 76.455 63.6389 77.7984 64.2435 78.7939C64.8425 79.7805 65.7381 80.4994 66.8185 80.4994Z" fill="#C48287" fill-opacity="0.75" stroke="#524E51" stroke-linecap="round" stroke-linejoin="round"/>
<path d="M82.005 80.4994C83.0854 80.4994 83.9809 79.7805 84.58 78.7939C85.1845 77.7984 85.5422 76.455 85.5422 74.9977C85.5422 73.5405 85.1845 72.1971 84.58 71.2015C83.9809 70.215 83.0854 69.4961 82.005 69.4961C80.9246 69.4961 80.029 70.215 79.43 71.2015C78.8254 72.1971 78.4678 73.5405 78.4678 74.9977C78.4678 76.455 78.8254 77.7984 79.43 78.7939C80.029 79.7805 80.9246 80.4994 82.005 80.4994Z" fill="#C48287" fill-opacity="0.75" stroke="#524E51" stroke-linecap="round" stroke-linejoin="round"/>
<path d="M91.1163 95.5043C92.1967 95.5043 93.0923 94.7853 93.6913 93.7988C94.2959 92.8033 94.6535 91.4599 94.6535 90.0026C94.6535 88.5453 94.2959 87.202 93.6913 86.2064C93.0923 85.2199 92.1967 84.501 91.1163 84.501C90.036 84.501 89.1404 85.2199 88.5413 86.2064C87.9368 87.202 87.5791 88.5453 87.5791 90.0026C87.5791 91.4599 87.9368 92.8033 88.5413 93.7988C89.1404 94.7853 90.036 95.5043 91.1163 95.5043Z" fill="#C48287" fill-opacity="0.75" stroke="#524E51" stroke-linecap="round" stroke-linejoin="round"/>
<path d="M74.1062 101.156C76.072 101.156 78.1061 100.768 79.6682 99.9172C81.2421 99.0596 82.3856 97.6956 82.3856 95.7742C82.3856 93.9951 81.7979 91.7536 80.4766 89.9448C79.1426 88.1187 77.0554 86.7314 74.1062 86.7314C71.1553 86.7314 69.1001 88.1204 67.7996 89.95C66.5124 91.7609 65.9619 94.0014 65.9619 95.7742C65.9619 97.6875 67.0625 99.0532 68.6074 99.9148C70.1377 100.768 72.1403 101.156 74.1062 101.156Z" fill="#C48287" fill-opacity="0.75" stroke="#524E51" stroke-linecap="round" stroke-linejoin="round"/>
<path d="M74.618 123.711L41.8619 92.0678C24.0597 73.082 50.2289 36.6292 74.618 66.1205C99.007 36.6292 125.058 73.2085 107.374 92.0678L74.618 123.711Z" stroke="#8E0000" stroke-width="1.71429" stroke-linecap="round" stroke-linejoin="round"/>
<mask id="path-9-inside-1_365_201" fill="white">
<path d="M26.0928 85.7432C26.0928 85.1909 26.5405 84.7432 27.0928 84.7432H124.142C124.694 84.7432 125.142 85.1909 125.142 85.7432V137.548C125.142 138.101 124.694 138.548 124.142 138.548H27.0928C26.5405 138.548 26.0928 138.101 26.0928 137.548V85.7432Z"/>
</mask>
<path d="M26.0928 84.7432H125.142H26.0928ZM125.142 137.548C125.142 138.929 124.022 140.048 122.642 140.048H27.0928C25.7121 140.048 24.5928 138.929 24.5928 137.548L27.5928 137.048H124.142C124.694 137.048 125.142 137.048 125.142 137.048V137.548ZM27.0928 140.048C25.7121 140.048 24.5928 138.929 24.5928 137.548V87.2432C24.5928 85.8625 25.7121 84.7432 27.0928 84.7432H27.5928C27.5928 84.7432 27.5928 85.1909 27.5928 85.7432V137.048L27.0928 140.048ZM125.142 84.7432V138.548V84.7432Z" fill="black" mask="url(#path-9-inside-1_365_201)"/>
</svg>
