<svg width="243" height="152" viewBox="0 0 243 152" fill="none" xmlns="http://www.w3.org/2000/svg">
<path d="M125.289 101.684V133.383H119.84V101.684H125.289ZM119.43 93.2754C119.43 92.3965 119.693 91.6543 120.221 91.0488C120.768 90.4434 121.568 90.1406 122.623 90.1406C123.658 90.1406 124.449 90.4434 124.996 91.0488C125.562 91.6543 125.846 92.3965 125.846 93.2754C125.846 94.1152 125.562 94.8379 124.996 95.4434C124.449 96.0293 123.658 96.3223 122.623 96.3223C121.568 96.3223 120.768 96.0293 120.221 95.4434C119.693 94.8379 119.43 94.1152 119.43 93.2754ZM149.781 116.01H137.623V112.934H149.781C152.32 112.934 154.381 112.523 155.963 111.703C157.564 110.863 158.727 109.73 159.449 108.305C160.191 106.879 160.562 105.277 160.562 103.5C160.562 101.762 160.191 100.16 159.449 98.6953C158.727 97.2305 157.564 96.0586 155.963 95.1797C154.381 94.2812 152.32 93.832 149.781 93.832H138.883V133.383H135.279V90.7266H149.781C152.906 90.7266 155.533 91.2637 157.662 92.3379C159.811 93.4121 161.432 94.9062 162.525 96.8203C163.619 98.7344 164.166 100.941 164.166 103.441C164.166 106.059 163.619 108.314 162.525 110.209C161.432 112.084 159.82 113.52 157.691 114.516C155.562 115.512 152.926 116.01 149.781 116.01ZM183.268 133.969C181.197 133.969 179.293 133.588 177.555 132.826C175.836 132.064 174.332 130.99 173.043 129.604C171.773 128.217 170.787 126.576 170.084 124.682C169.4 122.768 169.059 120.678 169.059 118.412V117.152C169.059 114.711 169.42 112.504 170.143 110.531C170.865 108.559 171.861 106.869 173.131 105.463C174.4 104.057 175.846 102.982 177.467 102.24C179.107 101.479 180.826 101.098 182.623 101.098C184.635 101.098 186.422 101.459 187.984 102.182C189.547 102.885 190.855 103.891 191.91 105.199C192.984 106.488 193.795 108.021 194.342 109.799C194.889 111.557 195.162 113.5 195.162 115.629V117.768H171.168V114.779H191.676V114.369C191.637 112.592 191.275 110.932 190.592 109.389C189.928 107.826 188.932 106.557 187.604 105.58C186.275 104.604 184.615 104.115 182.623 104.115C181.139 104.115 179.771 104.428 178.521 105.053C177.291 105.678 176.227 106.576 175.328 107.748C174.449 108.9 173.766 110.277 173.277 111.879C172.809 113.461 172.574 115.219 172.574 117.152V118.412C172.574 120.17 172.828 121.811 173.336 123.334C173.863 124.838 174.605 126.166 175.562 127.318C176.539 128.471 177.691 129.369 179.02 130.014C180.348 130.658 181.812 130.98 183.414 130.98C185.289 130.98 186.949 130.639 188.395 129.955C189.84 129.252 191.139 128.148 192.291 126.645L194.488 128.344C193.805 129.359 192.945 130.297 191.91 131.156C190.895 132.016 189.674 132.699 188.248 133.207C186.822 133.715 185.162 133.969 183.268 133.969ZM214.059 101.684V104.555H198.18V101.684H214.059ZM204.01 93.5391H207.496V125.678C207.496 127.143 207.691 128.246 208.082 128.988C208.473 129.73 208.98 130.229 209.605 130.482C210.23 130.736 210.904 130.863 211.627 130.863C212.154 130.863 212.662 130.834 213.15 130.775C213.639 130.697 214.078 130.619 214.469 130.541L214.615 133.5C214.186 133.637 213.629 133.744 212.945 133.822C212.262 133.92 211.578 133.969 210.895 133.969C209.547 133.969 208.355 133.725 207.32 133.236C206.285 132.729 205.475 131.869 204.889 130.658C204.303 129.428 204.01 127.758 204.01 125.648V93.5391Z" fill="black"/>
<path d="M5.34082 71.1489L74.7694 5.08203L144.198 71.1489" stroke="black" stroke-width="1.71429" stroke-linecap="round" stroke-linejoin="round"/>
<path d="M57.7071 91.5043C58.7875 91.5043 59.6831 90.7853 60.2821 89.7988C60.8867 88.8033 61.2444 87.4599 61.2444 86.0026C61.2444 84.5453 60.8867 83.202 60.2821 82.2064C59.6831 81.2199 58.7875 80.501 57.7071 80.501C56.6268 80.501 55.7312 81.2199 55.1321 82.2064C54.5276 83.202 54.1699 84.5453 54.1699 86.0026C54.1699 87.4599 54.5276 88.8033 55.1321 89.7988C55.7312 90.7853 56.6268 91.5043 57.7071 91.5043Z" fill="#C48287" fill-opacity="0.75" stroke="#524E51" stroke-linecap="round" stroke-linejoin="round"/>
<path d="M66.8185 76.4994C67.8988 76.4994 68.7944 75.7805 69.3935 74.7939C69.998 73.7984 70.3557 72.455 70.3557 70.9977C70.3557 69.5405 69.998 68.1971 69.3935 67.2015C68.7944 66.215 67.8988 65.4961 66.8185 65.4961C65.7381 65.4961 64.8425 66.215 64.2435 67.2015C63.6389 68.1971 63.2812 69.5405 63.2812 70.9977C63.2812 72.455 63.6389 73.7984 64.2435 74.7939C64.8425 75.7805 65.7381 76.4994 66.8185 76.4994Z" fill="#C48287" fill-opacity="0.75" stroke="#524E51" stroke-linecap="round" stroke-linejoin="round"/>
<path d="M82.005 76.4994C83.0854 76.4994 83.9809 75.7805 84.58 74.7939C85.1845 73.7984 85.5422 72.455 85.5422 70.9977C85.5422 69.5405 85.1845 68.1971 84.58 67.2015C83.9809 66.215 83.0854 65.4961 82.005 65.4961C80.9246 65.4961 80.029 66.215 79.43 67.2015C78.8254 68.1971 78.4678 69.5405 78.4678 70.9977C78.4678 72.455 78.8254 73.7984 79.43 74.7939C80.029 75.7805 80.9246 76.4994 82.005 76.4994Z" fill="#C48287" fill-opacity="0.75" stroke="#524E51" stroke-linecap="round" stroke-linejoin="round"/>
<path d="M91.1163 91.5043C92.1967 91.5043 93.0923 90.7853 93.6913 89.7988C94.2959 88.8033 94.6535 87.4599 94.6535 86.0026C94.6535 84.5453 94.2959 83.202 93.6913 82.2064C93.0923 81.2199 92.1967 80.501 91.1163 80.501C90.036 80.501 89.1404 81.2199 88.5413 82.2064C87.9368 83.202 87.5791 84.5453 87.5791 86.0026C87.5791 87.4599 87.9368 88.8033 88.5413 89.7988C89.1404 90.7853 90.036 91.5043 91.1163 91.5043Z" fill="#C48287" fill-opacity="0.75" stroke="#524E51" stroke-linecap="round" stroke-linejoin="round"/>
<path d="M74.1062 97.1558C76.072 97.1558 78.1061 96.7682 79.6682 95.9172C81.2421 95.0596 82.3856 93.6956 82.3856 91.7742C82.3856 89.9951 81.7979 87.7536 80.4766 85.9448C79.1426 84.1187 77.0554 82.7314 74.1062 82.7314C71.1553 82.7314 69.1001 84.1204 67.7996 85.95C66.5124 87.7609 65.9619 90.0014 65.9619 91.7742C65.9619 93.6875 67.0625 95.0532 68.6074 95.9148C70.1377 96.7682 72.1403 97.1558 74.1062 97.1558Z" fill="#C48287" fill-opacity="0.75" stroke="#524E51" stroke-linecap="round" stroke-linejoin="round"/>
<path d="M74.618 119.711L41.8619 88.0678C24.0597 69.082 50.2289 32.6292 74.618 62.1205C99.007 32.6292 125.058 69.2085 107.374 88.0678L74.618 119.711Z" stroke="#8E0000" stroke-width="1.71429" stroke-linecap="round" stroke-linejoin="round"/>
</svg>
